<?xml version="1.0" encoding="utf-8"?>
<!-- Generator: Adobe Illustrator 22.1.0, SVG Export Plug-In . SVG Version: 6.00 Build 0)  -->
<svg version="1.1" id="Layer_1" xmlns="http://www.w3.org/2000/svg" xmlns:xlink="http://www.w3.org/1999/xlink" x="0px" y="0px"
	 viewBox="0 0 792 612" style="enable-background:new 0 0 792 612;" xml:space="preserve">
<style type="text/css">
	.st0{fill:#FFFFFF;}
</style>
<g>
	<path d="M277.3,198.1c9.2-5,17.8-10.3,26.9-14.6c15.7-7.6,28.1-19.1,39.6-31.9c2.1-2.4,4.5-4.4,6.9-6.6c1.8-1.7,3.9-3,5.5-4.9
		c5.1-5.8,9.9-11.8,15-17.6c2.4-2.7,5.6-4.6,7.9-7.4c1.6-2,2-5,3.5-7.2c3.2-4.7,10.4-5.3,12.1-11.8c0.1-0.4,3.2-0.4,4.7,0
		c2.6,0.7,5.1,2.5,7.7,2.5c6.9,0.1,9.3,5,11.1,10.1c0.6,1.7-0.5,4.3-1.3,6.3c-2.1,5-4.4,10-0.2,15c0.8,1,1.6,1.9,2.5,2.8
		c10.1,9.7,20.3,19.2,30.2,29c4.4,4.4,7.8,9.9,12.4,14c9.5,8.5,19.3,16.9,29.6,24.5c5.9,4.4,13.4,6.6,19.5,10.6
		c6.5,4.3,12.3,9.7,18.5,14.6c2.4,1.9,5,3.7,7.4,5.6c15.2,11.5,30.3,23,45.5,34.5c3.8,2.9,7.4,6.2,11.5,8.2
		c3.2,1.6,7.2,1.7,10.9,1.9c9.7,0.6,18,5.3,26.8,8.4c6.7,2.3,11.4,13.1,9.4,20c-1.2,4.2-2.2,8.5-2.9,12.8c-1.2,7-5.8,10.2-12.6,8.6
		c-9.6-2.3-19.2-4.7-28.9-6.9c-4.4-1-8.2-2.6-12.2-5.2c-4.6-3-11-4-16.7-4.4c-8.7-0.7-17.4,0.2-26.1-0.3
		c-10.6-0.6-21.2-2.4-31.9-2.8c-9.5-0.3-19.1,1.2-28.6,0.7c-12.7-0.7-25.4-2.6-38.1-3.7c-5.3-0.5-10.7,0-16.1-0.2
		c-3.4-0.2-6.7-1.2-10.1-1.5c-3.1-0.3-6.3-0.3-9.4-0.5c-2.7-0.1-5.6-0.8-8.2-0.3c-4.4,0.9-8.5,2.9-12.9,3.7
		c-5.8,1-11.8,1.2-17.7,1.8c-1.8,0.2-3.7,0.2-5.2,1c-5.6,2.8-11,2.7-16.5,0c-0.9-0.4-1.8-0.9-2.7-0.9c-12-0.7-24-1.5-36.1-2
		c-2.6-0.1-5.1,0.8-7.7,1.2c-0.8,0.1-1.6,0.6-2.4,0.6c-9.6,0.4-19.2,0.8-28.9,1c-6.7,0.2-13.3-0.1-20,0.1c-2.2,0.1-4.3,1.1-6.1,1.6
		c3,4,5.6,8,8.7,11.5c5.8,6.6,3.4,14.3,2.8,21.5c-0.8,9-4.5,18.1-3.8,26.9c0.5,7.1-2.8,15.4,3.7,21.8c0.8,0.7-0.5,3.4-0.3,5.1
		c1,10.1,1.6,20.3,3.5,30.3c1.7,9.2,4.7,18.1,7.5,27.1c2.1,6.9,4.7,13.7,7.2,20.6c2.4,6.5,5.4,12.9,7,19.6c1,4.2,0.8,9.1-3,12.6
		c-0.6,0.6-1.4,1.4-2.2,1.4c-5.4,0.1-10.8,0.5-16-0.1c-2.4-0.3-4.7-2.6-6.8-4.4c-6.9-6-13.5-12.5-20.7-18.1
		c-4.3-3.3-6.9-6.3-6.6-12.1c0.5-9.2,1.5-18.7-0.1-27.7c-2.7-14.9-0.3-29.4,1.2-44c1.3-13.1,1.8-26.3,3.2-39.4
		c1.2-11.5,3-22.9,4.6-34.4c0.5-3.4,1.5-6.6,2.2-10c1.1-5.4-0.3-7.4-5.8-6.6c-5.9,0.8-11.7,2.7-17.5,4c-6.8,1.4-13.9,2-20.6,4.1
		c-5.8,1.8-11.6,4.4-16.4,8c-4.2,3.2-6.9,0.7-8.9-1.3c-7.6-7.5-10.2-17.5-12.6-27.5c-0.3-1.2,0.7-2.6,1.1-3.9
		c-1.6,0.4-3.5,0.9-5.4,1.4c-0.4-0.6-0.8-1.3-1.2-1.9c2.7-2.3,5.1-4.8,8-6.7c1.9-1.3,4.4-1.8,6.8-2.4c4.8-1.3,9.8-2.4,14.6-3.8
		c3.7-1.1,7.1-3,10.8-3.9c5.5-1.3,11.2-2.1,16.8-3.2c1.1-0.2,2.1-0.7,3.1-1.2c7.7-4.7,16.7-2.7,24.9-4.9c0.8-0.2,1.8,0.4,2.5,0.1
		c8.8-3.8,17.4-0.2,26.1,0c6,0.1,12.1-1.1,18.1-1.7c0.6-0.1,1.5,0,1.8,0.3c3.5,4.3,8.7,3.1,13.2,4c6.5,1.3,13.2,3,19.8,3.2
		c10.6,0.3,21.3-1.3,31.9-0.6c8.8,0.5,17.6,3.1,26.3,4.8c6,1.2,12,2.7,18.1,3.9c3.7,0.7,7.4,1.4,11.1,1.7c3.8,0.3,7.7,0,11.5,0.3
		c8.6,0.8,17.2,1.9,25.8,3c10.2,1.3,20.5,2,30.4,4.2c8.3,1.9,16.2-0.1,24.2,0.1c13.4,0.3,27.2-2.6,40.3,2.9c0.6,0.2,1.5,0.7,1.8,0.5
		c3.4-3.3,7.1-1.4,10.7-0.8c0.8,0.1,1.6-0.1,3.7-0.2c-1.7-1.7-2.6-2.8-3.8-3.7c-3.2-2.4-6.7-4.5-9.6-7.2c-5-4.5-9.7-9.3-14.3-14.2
		c-13.4-14.5-26.5-29.2-39.8-43.8c-10.6-11.7-21.5-23.2-32-35c-9.5-10.7-18.6-21.7-27.8-32.7c-5.9-7.1-11.5-14.5-17.7-21.4
		c-1-1.2-4.8-1.2-6.3-0.2c-2.9,1.8-6,4.2-7.4,7.2c-2.4,4.9-7.2,6.1-10.8,9.1c-5.2,4.4-10.7,8.5-16.1,12.7c-3.1,2.3-6.4,4.3-9.4,6.6
		c-1.5,1.1-3.2,2.5-3.7,4.1c-2.9,8-9.7,11.8-16.3,15.9c-4.5,2.9-8.6,6.3-13.4,9.9c1.3,0.8,2.2,1.8,3.1,1.9
		c15.3,1.1,30.5,2.2,45.8-1.3c4.9-1.1,10.6,1.2,15.9,1.4c5.3,0.2,10.6-0.6,15.9-0.5c2.1,0.1,5.1,1,6,2.5c1.1,1.8,1.4,5.1,0.4,7
		c-0.6,1.1-4.3,1.4-6.3,0.8c-5.6-1.6-11.1-2.9-16.9-1.2c-1.5,0.4-3.4,0.4-4.9-0.1c-8.5-3.1-16.9-1.7-25.5-0.3
		c-5.6,0.9-11.3,1.7-16.9,1.6c-10.2-0.3-18.6,2.9-25.4,10.6c-1.4,1.6-3.9,3.2-5.9,3.3c-16.3,0.8-30,7-41.2,18.9
		c-0.4,0.5-1,0.8-1.4,1.1c-6.9-1.8-7.9-6.9-8.4-12.8c-0.7-8.1,1.7-14.7,7.1-20.7c2.1-2.4,3.3-5.6,5.4-8c0.8-0.9,3.1-0.8,4.8-0.7
		c1.5,0.1,3,0.8,4.5,1.2c0.1-1.8,0.2-3.5,0.2-5.3C277.8,199.2,277.5,198.8,277.3,198.1z M320.8,182.6c8.6,0,28.8-16.5,31.1-26.1
		c-1.8,0.7-4.3,1.1-4.4,1.8c-0.8,4.8-5.4,4.8-8.3,7c-0.9,0.7-2.4,1.1-2.7,1.9C333.6,174.9,326.5,178.1,320.8,182.6z"/>
	<path d="M599.4,506.6c-3.6,3-6.2,5-8.7,7.2c-3.6,3.3-8,2.7-12.2,2.4c-4.6-0.4-7.4-3.6-10.7-6.5c-7.2-6.5-14.8-12.5-22.5-18.4
		c-4-3.1-6.5-6.4-6.6-12c-0.1-6.1-1.9-12.2-2.8-18.4c-0.8-5.2-1.5-10.3-1.9-15.6c-0.5-8.4-0.8-16.8-1-25.3
		c-0.4-15.2-0.1-30.3,3.5-45.3c2.7-11.5,5.5-22.9,7.2-34.6c1.1-7.5,3.6-15.5-2.3-22.8c-1.5-1.8-1.1-5.3,3.2-5.4c2-0.1,4-1.6,5.9-1.5
		c2.5,0.1,4.9,1.1,7.3,1.6c8.1,1.6,12.8,6.3,13.2,14.8c0,0.8,0.2,1.7,0.6,2.3c6.6,10.4,5.6,21.7,4.5,33.1c-1,10.4-1.3,21-2.2,31.4
		c-0.4,5-1.7,10-1.9,15.1c-0.4,15,3.1,29.5,6.3,44c2.2,9.9,3.3,20,5.8,29.8c2.2,8.3,6.2,16,12.4,22.3
		C597.3,505.6,598.4,506,599.4,506.6z"/>
</g>
<path class="st0" d="M320.8,182.7c5.7-4.6,12.9-7.7,15.7-15.4c0.3-0.9,1.8-1.2,2.7-1.9c2.9-2.1,7.4-2.2,8.3-7
	c0.1-0.8,2.6-1.1,4.4-1.8C349.6,166.2,329.4,182.7,320.8,182.7z"/>
</svg>
